<mxfile host="drawio-plugin" modified="2024-10-27T23:24:59.133Z" agent="Mozilla/5.0 (Macintosh; Intel Mac OS X 10_15_7) AppleWebKit/537.36 (KHTML, like Gecko) Chrome/122.0.0.0 Safari/537.36" version="22.1.22" etag="Ll94dt6dQUa3c1FlSiOV" type="embed" pages="23">
  <diagram id="KgwwwuPXLq_iXDXmIebJ" name="Page#pound">
    <mxGraphModel dx="637" dy="635" grid="1" gridSize="10" guides="1" tooltips="1" connect="1" arrows="1" fold="1" page="1" pageScale="1" pageWidth="827" pageHeight="1169" math="0" shadow="0">
      <root>
        <mxCell id="0" />
        <mxCell id="1" parent="0" />
        <UserObject label="Some text" link="https://github.com/rlespinasse/qanda" id="X03gjs-y7KjdQwQyzjE4-2">
          <mxCell style="rounded=1;whiteSpace=wrap;html=1;" parent="1" vertex="1">
            <mxGeometry x="10" y="10" width="120" height="60" as="geometry" />
          </mxCell>
        </UserObject>
        <UserObject label="Some link" link="https://github.com/rlespinasse/qanda" id="X03gjs-y7KjdQwQyzjE4-4">
          <mxCell style="text;html=1;strokeColor=none;fillColor=none;align=center;verticalAlign=middle;whiteSpace=wrap;rounded=0;" parent="1" vertex="1">
            <mxGeometry x="30" y="90" width="80" height="20" as="geometry" />
          </mxCell>
        </UserObject>
      </root>
    </mxGraphModel>
  </diagram>
  <diagram id="KgwwwuPXLq_iXDXmIebJ" name="Page%percent">
    <mxGraphModel dx="1192" dy="852" grid="1" gridSize="10" guides="1" tooltips="1" connect="1" arrows="1" fold="1" page="1" pageScale="1" pageWidth="827" pageHeight="1169" math="0" shadow="0">
      <root>
        <mxCell id="0" />
        <mxCell id="1" parent="0" />
        <UserObject label="Some text" link="https://github.com/rlespinasse/qanda" id="X03gjs-y7KjdQwQyzjE4-2">
          <mxCell style="rounded=1;whiteSpace=wrap;html=1;" parent="1" vertex="1">
            <mxGeometry x="10" y="10" width="120" height="60" as="geometry" />
          </mxCell>
        </UserObject>
        <UserObject label="Some link" link="https://github.com/rlespinasse/qanda" id="X03gjs-y7KjdQwQyzjE4-4">
          <mxCell style="text;html=1;strokeColor=none;fillColor=none;align=center;verticalAlign=middle;whiteSpace=wrap;rounded=0;" parent="1" vertex="1">
            <mxGeometry x="30" y="90" width="80" height="20" as="geometry" />
          </mxCell>
        </UserObject>
      </root>
    </mxGraphModel>
  </diagram>
  <diagram id="KgwwwuPXLq_iXDXmIebJ" name="Page&amp;ampersand">
    <mxGraphModel dx="1192" dy="852" grid="1" gridSize="10" guides="1" tooltips="1" connect="1" arrows="1" fold="1" page="1" pageScale="1" pageWidth="827" pageHeight="1169" math="0" shadow="0">
      <root>
        <mxCell id="0" />
        <mxCell id="1" parent="0" />
        <UserObject label="Some text" link="https://github.com/rlespinasse/qanda" id="X03gjs-y7KjdQwQyzjE4-2">
          <mxCell style="rounded=1;whiteSpace=wrap;html=1;" parent="1" vertex="1">
            <mxGeometry x="10" y="10" width="120" height="60" as="geometry" />
          </mxCell>
        </UserObject>
        <UserObject label="Some link" link="https://github.com/rlespinasse/qanda" id="X03gjs-y7KjdQwQyzjE4-4">
          <mxCell style="text;html=1;strokeColor=none;fillColor=none;align=center;verticalAlign=middle;whiteSpace=wrap;rounded=0;" parent="1" vertex="1">
            <mxGeometry x="30" y="90" width="80" height="20" as="geometry" />
          </mxCell>
        </UserObject>
      </root>
    </mxGraphModel>
  </diagram>
  <diagram id="KgwwwuPXLq_iXDXmIebJ" name="Page{left-curly-bracket">
    <mxGraphModel dx="782" dy="852" grid="1" gridSize="10" guides="1" tooltips="1" connect="1" arrows="1" fold="1" page="1" pageScale="1" pageWidth="827" pageHeight="1169" math="0" shadow="0">
      <root>
        <mxCell id="0" />
        <mxCell id="1" parent="0" />
        <UserObject label="Some text" link="https://github.com/rlespinasse/qanda" id="X03gjs-y7KjdQwQyzjE4-2">
          <mxCell style="rounded=1;whiteSpace=wrap;html=1;" parent="1" vertex="1">
            <mxGeometry x="10" y="10" width="120" height="60" as="geometry" />
          </mxCell>
        </UserObject>
        <UserObject label="Some link" link="https://github.com/rlespinasse/qanda" id="X03gjs-y7KjdQwQyzjE4-4">
          <mxCell style="text;html=1;strokeColor=none;fillColor=none;align=center;verticalAlign=middle;whiteSpace=wrap;rounded=0;" parent="1" vertex="1">
            <mxGeometry x="30" y="90" width="80" height="20" as="geometry" />
          </mxCell>
        </UserObject>
      </root>
    </mxGraphModel>
  </diagram>
  <diagram id="KgwwwuPXLq_iXDXmIebJ" name="Page}right-curly-bracket">
    <mxGraphModel dx="782" dy="852" grid="1" gridSize="10" guides="1" tooltips="1" connect="1" arrows="1" fold="1" page="1" pageScale="1" pageWidth="827" pageHeight="1169" math="0" shadow="0">
      <root>
        <mxCell id="0" />
        <mxCell id="1" parent="0" />
        <UserObject label="Some text" link="https://github.com/rlespinasse/qanda" id="X03gjs-y7KjdQwQyzjE4-2">
          <mxCell style="rounded=1;whiteSpace=wrap;html=1;" parent="1" vertex="1">
            <mxGeometry x="10" y="10" width="120" height="60" as="geometry" />
          </mxCell>
        </UserObject>
        <UserObject label="Some link" link="https://github.com/rlespinasse/qanda" id="X03gjs-y7KjdQwQyzjE4-4">
          <mxCell style="text;html=1;strokeColor=none;fillColor=none;align=center;verticalAlign=middle;whiteSpace=wrap;rounded=0;" parent="1" vertex="1">
            <mxGeometry x="30" y="90" width="80" height="20" as="geometry" />
          </mxCell>
        </UserObject>
      </root>
    </mxGraphModel>
  </diagram>
  <diagram id="KgwwwuPXLq_iXDXmIebJ" name="Page\back-slash">
    <mxGraphModel dx="782" dy="852" grid="1" gridSize="10" guides="1" tooltips="1" connect="1" arrows="1" fold="1" page="1" pageScale="1" pageWidth="827" pageHeight="1169" math="0" shadow="0">
      <root>
        <mxCell id="0" />
        <mxCell id="1" parent="0" />
        <UserObject label="Some text" link="https://github.com/rlespinasse/qanda" id="X03gjs-y7KjdQwQyzjE4-2">
          <mxCell style="rounded=1;whiteSpace=wrap;html=1;" parent="1" vertex="1">
            <mxGeometry x="10" y="10" width="120" height="60" as="geometry" />
          </mxCell>
        </UserObject>
        <UserObject label="Some link" link="https://github.com/rlespinasse/qanda" id="X03gjs-y7KjdQwQyzjE4-4">
          <mxCell style="text;html=1;strokeColor=none;fillColor=none;align=center;verticalAlign=middle;whiteSpace=wrap;rounded=0;" parent="1" vertex="1">
            <mxGeometry x="30" y="90" width="80" height="20" as="geometry" />
          </mxCell>
        </UserObject>
      </root>
    </mxGraphModel>
  </diagram>
  <diagram id="KgwwwuPXLq_iXDXmIebJ" name="Page&lt;left-angle-bracket">
    <mxGraphModel dx="782" dy="852" grid="1" gridSize="10" guides="1" tooltips="1" connect="1" arrows="1" fold="1" page="1" pageScale="1" pageWidth="827" pageHeight="1169" math="0" shadow="0">
      <root>
        <mxCell id="0" />
        <mxCell id="1" parent="0" />
        <UserObject label="Some text" link="https://github.com/rlespinasse/qanda" id="X03gjs-y7KjdQwQyzjE4-2">
          <mxCell style="rounded=1;whiteSpace=wrap;html=1;" parent="1" vertex="1">
            <mxGeometry x="10" y="10" width="120" height="60" as="geometry" />
          </mxCell>
        </UserObject>
        <UserObject label="Some link" link="https://github.com/rlespinasse/qanda" id="X03gjs-y7KjdQwQyzjE4-4">
          <mxCell style="text;html=1;strokeColor=none;fillColor=none;align=center;verticalAlign=middle;whiteSpace=wrap;rounded=0;" parent="1" vertex="1">
            <mxGeometry x="30" y="90" width="80" height="20" as="geometry" />
          </mxCell>
        </UserObject>
      </root>
    </mxGraphModel>
  </diagram>
  <diagram id="KgwwwuPXLq_iXDXmIebJ" name="Page&gt;right-angle-bracket">
    <mxGraphModel dx="782" dy="852" grid="1" gridSize="10" guides="1" tooltips="1" connect="1" arrows="1" fold="1" page="1" pageScale="1" pageWidth="827" pageHeight="1169" math="0" shadow="0">
      <root>
        <mxCell id="0" />
        <mxCell id="1" parent="0" />
        <UserObject label="Some text" link="https://github.com/rlespinasse/qanda" id="X03gjs-y7KjdQwQyzjE4-2">
          <mxCell style="rounded=1;whiteSpace=wrap;html=1;" parent="1" vertex="1">
            <mxGeometry x="10" y="10" width="120" height="60" as="geometry" />
          </mxCell>
        </UserObject>
        <UserObject label="Some link" link="https://github.com/rlespinasse/qanda" id="X03gjs-y7KjdQwQyzjE4-4">
          <mxCell style="text;html=1;strokeColor=none;fillColor=none;align=center;verticalAlign=middle;whiteSpace=wrap;rounded=0;" parent="1" vertex="1">
            <mxGeometry x="30" y="90" width="80" height="20" as="geometry" />
          </mxCell>
        </UserObject>
      </root>
    </mxGraphModel>
  </diagram>
  <diagram id="KgwwwuPXLq_iXDXmIebJ" name="Page*asterisk">
    <mxGraphModel dx="782" dy="852" grid="1" gridSize="10" guides="1" tooltips="1" connect="1" arrows="1" fold="1" page="1" pageScale="1" pageWidth="827" pageHeight="1169" math="0" shadow="0">
      <root>
        <mxCell id="0" />
        <mxCell id="1" parent="0" />
        <UserObject label="Some text" link="https://github.com/rlespinasse/qanda" id="X03gjs-y7KjdQwQyzjE4-2">
          <mxCell style="rounded=1;whiteSpace=wrap;html=1;" parent="1" vertex="1">
            <mxGeometry x="10" y="10" width="120" height="60" as="geometry" />
          </mxCell>
        </UserObject>
        <UserObject label="Some link" link="https://github.com/rlespinasse/qanda" id="X03gjs-y7KjdQwQyzjE4-4">
          <mxCell style="text;html=1;strokeColor=none;fillColor=none;align=center;verticalAlign=middle;whiteSpace=wrap;rounded=0;" parent="1" vertex="1">
            <mxGeometry x="30" y="90" width="80" height="20" as="geometry" />
          </mxCell>
        </UserObject>
      </root>
    </mxGraphModel>
  </diagram>
  <diagram id="KgwwwuPXLq_iXDXmIebJ" name="Page?question-mark">
    <mxGraphModel dx="782" dy="852" grid="1" gridSize="10" guides="1" tooltips="1" connect="1" arrows="1" fold="1" page="1" pageScale="1" pageWidth="827" pageHeight="1169" math="0" shadow="0">
      <root>
        <mxCell id="0" />
        <mxCell id="1" parent="0" />
        <UserObject label="Some text" link="https://github.com/rlespinasse/qanda" id="X03gjs-y7KjdQwQyzjE4-2">
          <mxCell style="rounded=1;whiteSpace=wrap;html=1;" parent="1" vertex="1">
            <mxGeometry x="10" y="10" width="120" height="60" as="geometry" />
          </mxCell>
        </UserObject>
        <UserObject label="Some link" link="https://github.com/rlespinasse/qanda" id="X03gjs-y7KjdQwQyzjE4-4">
          <mxCell style="text;html=1;strokeColor=none;fillColor=none;align=center;verticalAlign=middle;whiteSpace=wrap;rounded=0;" parent="1" vertex="1">
            <mxGeometry x="30" y="90" width="80" height="20" as="geometry" />
          </mxCell>
        </UserObject>
      </root>
    </mxGraphModel>
  </diagram>
  <diagram id="KgwwwuPXLq_iXDXmIebJ" name="Page/forward-slash">
    <mxGraphModel dx="782" dy="852" grid="1" gridSize="10" guides="1" tooltips="1" connect="1" arrows="1" fold="1" page="1" pageScale="1" pageWidth="827" pageHeight="1169" math="0" shadow="0">
      <root>
        <mxCell id="0" />
        <mxCell id="1" parent="0" />
        <UserObject label="Some text" link="https://github.com/rlespinasse/qanda" id="X03gjs-y7KjdQwQyzjE4-2">
          <mxCell style="rounded=1;whiteSpace=wrap;html=1;" parent="1" vertex="1">
            <mxGeometry x="10" y="10" width="120" height="60" as="geometry" />
          </mxCell>
        </UserObject>
        <UserObject label="Some link" link="https://github.com/rlespinasse/qanda" id="X03gjs-y7KjdQwQyzjE4-4">
          <mxCell style="text;html=1;strokeColor=none;fillColor=none;align=center;verticalAlign=middle;whiteSpace=wrap;rounded=0;" parent="1" vertex="1">
            <mxGeometry x="30" y="90" width="80" height="20" as="geometry" />
          </mxCell>
        </UserObject>
      </root>
    </mxGraphModel>
  </diagram>
  <diagram id="KgwwwuPXLq_iXDXmIebJ" name="Page$dollar-sign">
    <mxGraphModel dx="782" dy="852" grid="1" gridSize="10" guides="1" tooltips="1" connect="1" arrows="1" fold="1" page="1" pageScale="1" pageWidth="827" pageHeight="1169" math="0" shadow="0">
      <root>
        <mxCell id="0" />
        <mxCell id="1" parent="0" />
        <UserObject label="Some text" link="https://github.com/rlespinasse/qanda" id="X03gjs-y7KjdQwQyzjE4-2">
          <mxCell style="rounded=1;whiteSpace=wrap;html=1;" parent="1" vertex="1">
            <mxGeometry x="10" y="10" width="120" height="60" as="geometry" />
          </mxCell>
        </UserObject>
        <UserObject label="Some link" link="https://github.com/rlespinasse/qanda" id="X03gjs-y7KjdQwQyzjE4-4">
          <mxCell style="text;html=1;strokeColor=none;fillColor=none;align=center;verticalAlign=middle;whiteSpace=wrap;rounded=0;" parent="1" vertex="1">
            <mxGeometry x="30" y="90" width="80" height="20" as="geometry" />
          </mxCell>
        </UserObject>
      </root>
    </mxGraphModel>
  </diagram>
  <diagram id="KgwwwuPXLq_iXDXmIebJ" name="Page!exclamation-point">
    <mxGraphModel dx="782" dy="852" grid="1" gridSize="10" guides="1" tooltips="1" connect="1" arrows="1" fold="1" page="1" pageScale="1" pageWidth="827" pageHeight="1169" math="0" shadow="0">
      <root>
        <mxCell id="0" />
        <mxCell id="1" parent="0" />
        <UserObject label="Some text" link="https://github.com/rlespinasse/qanda" id="X03gjs-y7KjdQwQyzjE4-2">
          <mxCell style="rounded=1;whiteSpace=wrap;html=1;" parent="1" vertex="1">
            <mxGeometry x="10" y="10" width="120" height="60" as="geometry" />
          </mxCell>
        </UserObject>
        <UserObject label="Some link" link="https://github.com/rlespinasse/qanda" id="X03gjs-y7KjdQwQyzjE4-4">
          <mxCell style="text;html=1;strokeColor=none;fillColor=none;align=center;verticalAlign=middle;whiteSpace=wrap;rounded=0;" parent="1" vertex="1">
            <mxGeometry x="30" y="90" width="80" height="20" as="geometry" />
          </mxCell>
        </UserObject>
      </root>
    </mxGraphModel>
  </diagram>
  <diagram id="KgwwwuPXLq_iXDXmIebJ" name="Page&#39;single-quotes">
    <mxGraphModel dx="782" dy="852" grid="1" gridSize="10" guides="1" tooltips="1" connect="1" arrows="1" fold="1" page="1" pageScale="1" pageWidth="827" pageHeight="1169" math="0" shadow="0">
      <root>
        <mxCell id="0" />
        <mxCell id="1" parent="0" />
        <UserObject label="Some text" link="https://github.com/rlespinasse/qanda" id="X03gjs-y7KjdQwQyzjE4-2">
          <mxCell style="rounded=1;whiteSpace=wrap;html=1;" parent="1" vertex="1">
            <mxGeometry x="10" y="10" width="120" height="60" as="geometry" />
          </mxCell>
        </UserObject>
        <UserObject label="Some link" link="https://github.com/rlespinasse/qanda" id="X03gjs-y7KjdQwQyzjE4-4">
          <mxCell style="text;html=1;strokeColor=none;fillColor=none;align=center;verticalAlign=middle;whiteSpace=wrap;rounded=0;" parent="1" vertex="1">
            <mxGeometry x="30" y="90" width="80" height="20" as="geometry" />
          </mxCell>
        </UserObject>
      </root>
    </mxGraphModel>
  </diagram>
  <diagram id="KgwwwuPXLq_iXDXmIebJ" name="Page&quot;double-quotes">
    <mxGraphModel dx="782" dy="852" grid="1" gridSize="10" guides="1" tooltips="1" connect="1" arrows="1" fold="1" page="1" pageScale="1" pageWidth="827" pageHeight="1169" math="0" shadow="0">
      <root>
        <mxCell id="0" />
        <mxCell id="1" parent="0" />
        <UserObject label="Some text" link="https://github.com/rlespinasse/qanda" id="X03gjs-y7KjdQwQyzjE4-2">
          <mxCell style="rounded=1;whiteSpace=wrap;html=1;" parent="1" vertex="1">
            <mxGeometry x="10" y="10" width="120" height="60" as="geometry" />
          </mxCell>
        </UserObject>
        <UserObject label="Some link" link="https://github.com/rlespinasse/qanda" id="X03gjs-y7KjdQwQyzjE4-4">
          <mxCell style="text;html=1;strokeColor=none;fillColor=none;align=center;verticalAlign=middle;whiteSpace=wrap;rounded=0;" parent="1" vertex="1">
            <mxGeometry x="30" y="90" width="80" height="20" as="geometry" />
          </mxCell>
        </UserObject>
      </root>
    </mxGraphModel>
  </diagram>
  <diagram id="KgwwwuPXLq_iXDXmIebJ" name="Page:colon">
    <mxGraphModel dx="782" dy="852" grid="1" gridSize="10" guides="1" tooltips="1" connect="1" arrows="1" fold="1" page="1" pageScale="1" pageWidth="827" pageHeight="1169" math="0" shadow="0">
      <root>
        <mxCell id="0" />
        <mxCell id="1" parent="0" />
        <UserObject label="Some text" link="https://github.com/rlespinasse/qanda" id="X03gjs-y7KjdQwQyzjE4-2">
          <mxCell style="rounded=1;whiteSpace=wrap;html=1;" parent="1" vertex="1">
            <mxGeometry x="10" y="10" width="120" height="60" as="geometry" />
          </mxCell>
        </UserObject>
        <UserObject label="Some link" link="https://github.com/rlespinasse/qanda" id="X03gjs-y7KjdQwQyzjE4-4">
          <mxCell style="text;html=1;strokeColor=none;fillColor=none;align=center;verticalAlign=middle;whiteSpace=wrap;rounded=0;" parent="1" vertex="1">
            <mxGeometry x="30" y="90" width="80" height="20" as="geometry" />
          </mxCell>
        </UserObject>
      </root>
    </mxGraphModel>
  </diagram>
  <diagram id="KgwwwuPXLq_iXDXmIebJ" name="Page@at-sign">
    <mxGraphModel dx="782" dy="852" grid="1" gridSize="10" guides="1" tooltips="1" connect="1" arrows="1" fold="1" page="1" pageScale="1" pageWidth="827" pageHeight="1169" math="0" shadow="0">
      <root>
        <mxCell id="0" />
        <mxCell id="1" parent="0" />
        <UserObject label="Some text" link="https://github.com/rlespinasse/qanda" id="X03gjs-y7KjdQwQyzjE4-2">
          <mxCell style="rounded=1;whiteSpace=wrap;html=1;" parent="1" vertex="1">
            <mxGeometry x="10" y="10" width="120" height="60" as="geometry" />
          </mxCell>
        </UserObject>
        <UserObject label="Some link" link="https://github.com/rlespinasse/qanda" id="X03gjs-y7KjdQwQyzjE4-4">
          <mxCell style="text;html=1;strokeColor=none;fillColor=none;align=center;verticalAlign=middle;whiteSpace=wrap;rounded=0;" parent="1" vertex="1">
            <mxGeometry x="30" y="90" width="80" height="20" as="geometry" />
          </mxCell>
        </UserObject>
      </root>
    </mxGraphModel>
  </diagram>
  <diagram id="KgwwwuPXLq_iXDXmIebJ" name="Page+plus-sign">
    <mxGraphModel dx="782" dy="852" grid="1" gridSize="10" guides="1" tooltips="1" connect="1" arrows="1" fold="1" page="1" pageScale="1" pageWidth="827" pageHeight="1169" math="0" shadow="0">
      <root>
        <mxCell id="0" />
        <mxCell id="1" parent="0" />
        <UserObject label="Some text" link="https://github.com/rlespinasse/qanda" id="X03gjs-y7KjdQwQyzjE4-2">
          <mxCell style="rounded=1;whiteSpace=wrap;html=1;" parent="1" vertex="1">
            <mxGeometry x="10" y="10" width="120" height="60" as="geometry" />
          </mxCell>
        </UserObject>
        <UserObject label="Some link" link="https://github.com/rlespinasse/qanda" id="X03gjs-y7KjdQwQyzjE4-4">
          <mxCell style="text;html=1;strokeColor=none;fillColor=none;align=center;verticalAlign=middle;whiteSpace=wrap;rounded=0;" parent="1" vertex="1">
            <mxGeometry x="30" y="90" width="80" height="20" as="geometry" />
          </mxCell>
        </UserObject>
      </root>
    </mxGraphModel>
  </diagram>
  <diagram id="KgwwwuPXLq_iXDXmIebJ" name="Page`backtick">
    <mxGraphModel dx="782" dy="852" grid="1" gridSize="10" guides="1" tooltips="1" connect="1" arrows="1" fold="1" page="1" pageScale="1" pageWidth="827" pageHeight="1169" math="0" shadow="0">
      <root>
        <mxCell id="0" />
        <mxCell id="1" parent="0" />
        <UserObject label="Some text" link="https://github.com/rlespinasse/qanda" id="X03gjs-y7KjdQwQyzjE4-2">
          <mxCell style="rounded=1;whiteSpace=wrap;html=1;" parent="1" vertex="1">
            <mxGeometry x="10" y="10" width="120" height="60" as="geometry" />
          </mxCell>
        </UserObject>
        <UserObject label="Some link" link="https://github.com/rlespinasse/qanda" id="X03gjs-y7KjdQwQyzjE4-4">
          <mxCell style="text;html=1;strokeColor=none;fillColor=none;align=center;verticalAlign=middle;whiteSpace=wrap;rounded=0;" parent="1" vertex="1">
            <mxGeometry x="30" y="90" width="80" height="20" as="geometry" />
          </mxCell>
        </UserObject>
      </root>
    </mxGraphModel>
  </diagram>
  <diagram id="KgwwwuPXLq_iXDXmIebJ" name="Page|pipe">
    <mxGraphModel dx="782" dy="852" grid="1" gridSize="10" guides="1" tooltips="1" connect="1" arrows="1" fold="1" page="1" pageScale="1" pageWidth="827" pageHeight="1169" math="0" shadow="0">
      <root>
        <mxCell id="0" />
        <mxCell id="1" parent="0" />
        <UserObject label="Some text" link="https://github.com/rlespinasse/qanda" id="X03gjs-y7KjdQwQyzjE4-2">
          <mxCell style="rounded=1;whiteSpace=wrap;html=1;" parent="1" vertex="1">
            <mxGeometry x="10" y="10" width="120" height="60" as="geometry" />
          </mxCell>
        </UserObject>
        <UserObject label="Some link" link="https://github.com/rlespinasse/qanda" id="X03gjs-y7KjdQwQyzjE4-4">
          <mxCell style="text;html=1;strokeColor=none;fillColor=none;align=center;verticalAlign=middle;whiteSpace=wrap;rounded=0;" parent="1" vertex="1">
            <mxGeometry x="30" y="90" width="80" height="20" as="geometry" />
          </mxCell>
        </UserObject>
      </root>
    </mxGraphModel>
  </diagram>
  <diagram id="KgwwwuPXLq_iXDXmIebJ" name="Page=equal-sign">
    <mxGraphModel dx="637" dy="635" grid="1" gridSize="10" guides="1" tooltips="1" connect="1" arrows="1" fold="1" page="1" pageScale="1" pageWidth="827" pageHeight="1169" math="0" shadow="0">
      <root>
        <mxCell id="0" />
        <mxCell id="1" parent="0" />
        <UserObject label="Some text" link="https://github.com/rlespinasse/qanda" id="X03gjs-y7KjdQwQyzjE4-2">
          <mxCell style="rounded=1;whiteSpace=wrap;html=1;" parent="1" vertex="1">
            <mxGeometry x="10" y="10" width="120" height="60" as="geometry" />
          </mxCell>
        </UserObject>
        <UserObject label="Some link" link="https://github.com/rlespinasse/qanda" id="X03gjs-y7KjdQwQyzjE4-4">
          <mxCell style="text;html=1;strokeColor=none;fillColor=none;align=center;verticalAlign=middle;whiteSpace=wrap;rounded=0;" parent="1" vertex="1">
            <mxGeometry x="30" y="90" width="80" height="20" as="geometry" />
          </mxCell>
        </UserObject>
      </root>
    </mxGraphModel>
  </diagram>
  <diagram name="Page;semicolon" id="0pDesSYcRCxz2iJnQgf0">
    <mxGraphModel dx="637" dy="635" grid="1" gridSize="10" guides="1" tooltips="1" connect="1" arrows="1" fold="1" page="1" pageScale="1" pageWidth="827" pageHeight="1169" math="0" shadow="0">
      <root>
        <mxCell id="Y_GQgUMKynHdJlMPC3jQ-0" />
        <mxCell id="Y_GQgUMKynHdJlMPC3jQ-1" parent="Y_GQgUMKynHdJlMPC3jQ-0" />
        <UserObject label="Some text" link="https://github.com/rlespinasse/qanda" id="Y_GQgUMKynHdJlMPC3jQ-2">
          <mxCell style="rounded=1;whiteSpace=wrap;html=1;" vertex="1" parent="Y_GQgUMKynHdJlMPC3jQ-1">
            <mxGeometry x="10" y="10" width="120" height="60" as="geometry" />
          </mxCell>
        </UserObject>
        <UserObject label="Some link" link="https://github.com/rlespinasse/qanda" id="Y_GQgUMKynHdJlMPC3jQ-3">
          <mxCell style="text;html=1;strokeColor=none;fillColor=none;align=center;verticalAlign=middle;whiteSpace=wrap;rounded=0;" vertex="1" parent="Y_GQgUMKynHdJlMPC3jQ-1">
            <mxGeometry x="30" y="90" width="80" height="20" as="geometry" />
          </mxCell>
        </UserObject>
      </root>
    </mxGraphModel>
  </diagram>
  <diagram name="Page,comma" id="Fitj3c8r3Kxduk1ynhEC">
    <mxGraphModel dx="637" dy="635" grid="1" gridSize="10" guides="1" tooltips="1" connect="1" arrows="1" fold="1" page="1" pageScale="1" pageWidth="827" pageHeight="1169" math="0" shadow="0">
      <root>
        <mxCell id="ftAFxybLSZbmEAi_89KO-0" />
        <mxCell id="ftAFxybLSZbmEAi_89KO-1" parent="ftAFxybLSZbmEAi_89KO-0" />
        <UserObject label="Some text" link="https://github.com/rlespinasse/qanda" id="ftAFxybLSZbmEAi_89KO-2">
          <mxCell style="rounded=1;whiteSpace=wrap;html=1;" vertex="1" parent="ftAFxybLSZbmEAi_89KO-1">
            <mxGeometry x="10" y="10" width="120" height="60" as="geometry" />
          </mxCell>
        </UserObject>
        <UserObject label="Some link" link="https://github.com/rlespinasse/qanda" id="ftAFxybLSZbmEAi_89KO-3">
          <mxCell style="text;html=1;strokeColor=none;fillColor=none;align=center;verticalAlign=middle;whiteSpace=wrap;rounded=0;" vertex="1" parent="ftAFxybLSZbmEAi_89KO-1">
            <mxGeometry x="30" y="90" width="80" height="20" as="geometry" />
          </mxCell>
        </UserObject>
      </root>
    </mxGraphModel>
  </diagram>
</mxfile>
